<svg width="19" height="23" viewBox="0 0 19 23" fill="none" xmlns="http://www.w3.org/2000/svg">
<path fill-rule="evenodd" clip-rule="evenodd" d="M2.76818 2.76798C4.54049 0.995673 6.94426 0 9.45068 0C11.9571 0 14.3609 0.995673 16.1332 2.76798C17.9055 4.54029 18.9012 6.94406 18.9012 9.45048C18.9012 11.9569 17.9055 14.3607 16.1332 16.133L9.45068 22.8155L2.76818 16.133C1.89057 15.2555 1.1944 14.2137 0.719431 13.0671C0.244463 11.9205 0 10.6916 0 9.45048C0 8.20941 0.244463 6.98049 0.719431 5.8339C1.1944 4.68731 1.89057 3.64551 2.76818 2.76798ZM9.45068 12.1505C10.1668 12.1505 10.8535 11.866 11.3599 11.3597C11.8662 10.8533 12.1507 10.1666 12.1507 9.45048C12.1507 8.7344 11.8662 8.04764 11.3599 7.54129C10.8535 7.03495 10.1668 6.75048 9.45068 6.75048C8.7346 6.75048 8.04784 7.03495 7.54149 7.54129C7.03515 8.04764 6.75068 8.7344 6.75068 9.45048C6.75068 10.1666 7.03515 10.8533 7.54149 11.3597C8.04784 11.866 8.7346 12.1505 9.45068 12.1505Z" fill="black"/>
</svg>
