<svg width="21" height="21" viewBox="0 0 21 21" fill="none" xmlns="http://www.w3.org/2000/svg">
<path d="M20.16 0.015625H0.84C0.375375 0.015625 0 0.380775 0 0.832744V19.6265C0 20.0785 0.375375 20.4436 0.84 20.4436H20.16C20.6246 20.4436 21 20.0785 21 19.6265V0.832744C21 0.380775 20.6246 0.015625 20.16 0.015625ZM17.7345 5.97804H16.0571C14.742 5.97804 14.4874 6.58577 14.4874 7.4795V9.44824H17.6269L17.2174 12.5303H14.4874V20.4436H11.214V12.5329H8.47612V9.44824H11.214V7.17563C11.214 4.53787 12.8704 3.10025 15.2906 3.10025C16.4509 3.10025 17.4457 3.18452 17.7371 3.22282V5.97804H17.7345Z" fill="black"/>
</svg>
