<svg width="22" height="21" viewBox="0 0 22 21" fill="none" xmlns="http://www.w3.org/2000/svg">
<path d="M11 7.69655C10.4605 7.69655 9.93302 7.84511 9.4844 8.12344C9.03579 8.40178 8.68613 8.79739 8.47966 9.26025C8.27318 9.72311 8.21916 10.2324 8.32442 10.7238C8.42968 11.2152 8.6895 11.6665 9.07101 12.0208C9.45253 12.375 9.93861 12.6163 10.4678 12.714C10.997 12.8117 11.5455 12.7616 12.044 12.5699C12.5424 12.3781 12.9685 12.0535 13.2682 11.6369C13.568 11.2204 13.728 10.7306 13.728 10.2296C13.728 9.89697 13.6574 9.56758 13.5203 9.26025C13.3832 8.95292 13.1823 8.67368 12.929 8.43846C12.6757 8.20325 12.3749 8.01666 12.044 7.88936C11.713 7.76206 11.3582 7.69655 11 7.69655ZM21.923 5.19412C21.9172 4.40535 21.7608 3.62379 21.461 2.88576C21.2402 2.3457 20.8986 1.85526 20.4587 1.44679C20.0188 1.03833 19.4906 0.721123 18.909 0.51611C18.1142 0.237742 17.2725 0.0924964 16.423 0.0871229C15.004 0.0156249 14.586 0.015625 11 0.015625C7.414 0.015625 6.996 0.0156249 5.577 0.0871229C4.72753 0.0924964 3.88583 0.237742 3.091 0.51611C2.50939 0.721123 1.9812 1.03833 1.5413 1.44679C1.1014 1.85526 0.759789 2.3457 0.539 2.88576C0.23921 3.62379 0.082787 4.40535 0.0769999 5.19412C-7.37608e-08 6.51172 0 6.89985 0 10.2296C0 13.5594 -7.37608e-08 13.9475 0.0769999 15.2651C0.0888403 16.0567 0.245052 16.8406 0.539 17.5837C0.758811 18.1213 1.10014 18.6089 1.54 19.0136C1.97801 19.4246 2.50733 19.7418 3.091 19.9431C3.88583 20.2215 4.72753 20.3667 5.577 20.3721C6.996 20.4436 7.414 20.4436 11 20.4436C14.586 20.4436 15.004 20.4436 16.423 20.3721C17.2725 20.3667 18.1142 20.2215 18.909 19.9431C19.4927 19.7418 20.022 19.4246 20.46 19.0136C20.8999 18.6089 21.2412 18.1213 21.461 17.5837C21.7605 16.842 21.9169 16.0572 21.923 15.2651C22 13.9475 22 13.5594 22 10.2296C22 6.89985 22 6.51172 21.923 5.19412ZM19.129 13.3653C19.0937 13.9956 18.9488 14.6165 18.7 15.2038C18.4865 15.6938 18.169 16.1389 17.7665 16.5126C17.364 16.8863 16.8847 17.1811 16.357 17.3794C15.7185 17.5976 15.0461 17.7183 14.366 17.7369H7.634C6.9539 17.7183 6.28154 17.5976 5.643 17.3794C5.09751 17.1912 4.6049 16.8909 4.202 16.501C3.80343 16.1346 3.49563 15.6919 3.3 15.2038C3.06411 14.6115 2.93767 13.9865 2.926 13.3551V10.2296V7.10413C2.93767 6.47273 3.06411 5.84769 3.3 5.2554C3.50271 4.74889 3.8261 4.29148 4.246 3.91737C4.64237 3.54928 5.11859 3.26377 5.643 3.07982C6.28154 2.86166 6.9539 2.74093 7.634 2.72233H14.366C15.0461 2.74093 15.7185 2.86166 16.357 3.07982C16.9025 3.26805 17.3951 3.56833 17.798 3.95823C18.1966 4.32465 18.5044 4.76731 18.7 5.2554C18.935 5.84831 19.065 6.47263 19.085 7.10413V10.2296C19.085 12.3337 19.162 12.5482 19.129 13.3551V13.3653ZM17.369 5.7661C17.238 5.43617 17.0315 5.13655 16.7638 4.88792C16.496 4.63928 16.1733 4.44754 15.818 4.32593C15.3301 4.1689 14.8163 4.09284 14.3 4.10122H7.7C7.18109 4.10593 6.66718 4.19584 6.182 4.36678C5.83212 4.48287 5.51286 4.66678 5.24544 4.90629C4.97802 5.14579 4.76857 5.43541 4.631 5.75589C4.47125 6.21078 4.39321 6.68699 4.4 7.16542V13.2938C4.41091 13.7751 4.50755 14.2514 4.686 14.7033C4.81697 15.0333 5.02346 15.3329 5.29123 15.5815C5.55901 15.8302 5.88168 16.0219 6.237 16.1435C6.70633 16.3038 7.20022 16.3934 7.7 16.4091H14.3C14.8189 16.4044 15.3328 16.3145 15.818 16.1435C16.1733 16.0219 16.496 15.8302 16.7638 15.5815C17.0315 15.3329 17.238 15.0333 17.369 14.7033C17.5531 14.2528 17.6499 13.7756 17.655 13.2938V10.2296V7.16542C17.6553 6.68311 17.5583 6.20502 17.369 5.75589V5.7661ZM11 14.1314C10.4487 14.1314 9.90282 14.0304 9.39363 13.8342C8.88443 13.638 8.42193 13.3504 8.03262 12.9879C7.64331 12.6255 7.33483 12.1953 7.12486 11.722C6.91489 11.2487 6.80755 10.7415 6.809 10.2296C6.809 9.45749 7.05573 8.70272 7.51794 8.06086C7.98015 7.41901 8.63706 6.91892 9.40552 6.62391C10.174 6.32889 11.0194 6.25223 11.8348 6.40361C12.6502 6.55498 13.3989 6.9276 13.9862 7.4743C14.5734 8.02099 14.9727 8.71717 15.1336 9.4747C15.2945 10.2322 15.2097 11.0171 14.89 11.7298C14.5702 12.4426 14.03 13.0513 13.3375 13.4788C12.645 13.9063 11.8315 14.1334 11 14.1314ZM15.4 7.09392C15.1568 7.07002 14.9318 6.96341 14.7683 6.79462C14.6047 6.62583 14.5142 6.40682 14.5142 6.17977C14.5142 5.95272 14.6047 5.7337 14.7683 5.56492C14.9318 5.39613 15.1568 5.28952 15.4 5.26561C15.6432 5.28952 15.8682 5.39613 16.0317 5.56492C16.1953 5.7337 16.2858 5.95272 16.2858 6.17977C16.2858 6.40682 16.1953 6.62583 16.0317 6.79462C15.8682 6.96341 15.6432 7.07002 15.4 7.09392Z" fill="black"/>
</svg>
